<svg width="125" height="32" viewBox="0 0 125 32" fill="none" xmlns="http://www.w3.org/2000/svg">
<path fill-rule="evenodd" clip-rule="evenodd" d="M27.8086 30.7185H41.5992L47.7383 8.76758H33.9477L27.8086 30.7185ZM32.5384 21.6694H41.7227L43.0084 17.8166H33.8241L32.5384 21.6694Z" fill="white"/>
<path fill-rule="evenodd" clip-rule="evenodd" d="M10.458 13.6433L5.1875 15.3358L21.9076 32L26.0335 30.7119L33.5875 3.92518L32.5741 0L20.9468 2.95124L21.5982 6.69463L28.5503 4.92713L22.8474 26.8414L10.458 13.6433Z" fill="white"/>
<path fill-rule="evenodd" clip-rule="evenodd" d="M20.1648 17.7131L21.5514 13.2607L13.7182 4.76562L1 7.98143L1.94681 12.0546L12.0604 9.19896L20.1648 17.7131Z" fill="white" stroke="white" stroke-width="0.0762" stroke-miterlimit="22.9256"/>
<path fill-rule="evenodd" clip-rule="evenodd" d="M43.543 30.7184L118.991 30.7106L125.002 8.75977H49.6761L43.543 30.7184ZM105.605 28.9805V10.4948H116.881C122.917 12.0243 120.959 22.1124 116.881 22.4159L111.694 22.4402L109.773 20.0123V28.9835L105.605 28.9805ZM115.313 14.3944C116.81 14.3458 117.87 18.1698 115.313 18.5218L109.773 18.4612V14.4186L115.313 14.3944ZM85.7876 28.9592H81.2524V10.4948H89.0571L92.8008 21.6949L96.5445 10.4948H104.361V28.9592H99.8141L99.7643 15.281L95.122 28.9835H92.8008H90.4796L85.8375 15.281L85.7876 28.9592ZM80.2922 20.5302C80.2922 22.7417 79.615 25.3903 78.0585 26.8267C76.502 28.2632 74.4687 28.9835 71.9587 28.9835C69.4298 28.9835 67.3824 28.2632 65.8119 26.8267C64.2413 25.3903 63.6164 22.7876 63.6164 20.5761V18.9899C63.6164 16.7866 64.2378 14.0933 65.8026 12.6557C67.3695 11.2163 69.4112 10.4948 71.9306 10.4948C74.4313 10.4948 76.4682 11.2163 78.0399 12.6557C79.6093 14.0933 80.2922 16.7407 80.2922 18.9438V20.5302ZM75.7775 19.044C75.7775 17.7592 75.4432 16.708 74.7725 15.8846C74.1016 15.0609 73.1552 14.6504 71.9306 14.6504C70.6825 14.6504 69.7229 15.0578 69.0605 15.8763C68.4 16.6923 68.0696 17.7508 68.0696 19.044V20.3605C68.0696 21.6621 68.4047 22.7248 69.0746 23.545C69.7462 24.3677 70.7106 24.7794 71.9587 24.7794C73.1739 24.7794 74.1149 24.3677 74.7819 23.545C75.447 22.7248 75.7775 21.6621 75.7775 20.3605V19.044ZM63.6554 28.9835V24.5137H54.9765C53.2862 24.5137 50.8839 17.1547 54.9765 14.6471L61.5614 14.598L63.8068 10.4966H54.2449C48.1238 10.296 43.5731 26.5673 54.2449 28.965L63.6554 28.9835Z" fill="white"/>
</svg>
